<svg width="134" height="30" viewBox="0 0 134 30" fill="none" xmlns="http://www.w3.org/2000/svg">
<g clip-path="url(#clip0_504_184)">
<path d="M31.7297 12.748C32.479 13.972 33.0518 15.048 33.8011 16.272L32.4136 19.044L28.6099 12.748H31.7297ZM41.4006 12.748L36.6434 21.548V26.97H33.9814V21.084C35.5989 18.228 36.5483 15.604 38.2232 12.748H41.4006ZM116.163 20.442C116.679 19.6028 116.939 18.6292 116.912 17.642C116.919 16.9661 116.802 16.2948 116.567 15.662C116.327 15.0841 115.992 14.5513 115.576 14.086C115.135 13.6415 114.602 13.3002 114.016 13.086C113.39 12.8427 112.723 12.7239 112.052 12.736H105.647V26.96H108.361V15.138H112.06C112.464 15.1301 112.862 15.2308 113.215 15.43C113.468 15.5972 113.684 15.8159 113.849 16.072C113.997 16.3231 114.095 16.5999 114.141 16.888C114.202 17.1358 114.24 17.3889 114.254 17.644C114.274 18.0087 114.195 18.372 114.024 18.694C113.906 18.9808 113.729 19.2392 113.505 19.452C113.317 19.6511 113.076 19.7902 112.811 19.852C112.576 19.9653 112.32 20.0248 112.06 20.026H109.344C110.442 21.602 111.54 23.174 112.636 24.69C113.158 25.448 113.736 26.206 114.313 26.964H117.485C116.329 25.332 115.173 23.764 114.018 22.184C114.887 21.828 115.632 21.2222 116.163 20.442ZM101.025 14.2C100.083 13.2706 98.82 12.7477 97.5028 12.742H91.2056V26.966H93.9191V15.138H97.2134C97.594 15.1181 97.9732 15.1987 98.3135 15.372C98.6138 15.5183 98.8873 15.7151 99.1222 15.954C99.3363 16.2184 99.5113 16.5128 99.6415 16.828C99.7541 17.1264 99.8125 17.4427 99.814 17.762C99.8178 18.0811 99.7592 18.3978 99.6415 18.694C99.5807 18.9957 99.4442 19.2767 99.2451 19.51C99.0539 19.7485 98.8182 19.9469 98.5513 20.094C98.2191 20.2176 97.8667 20.2766 97.5127 20.268H96.2402V22.716H97.0489C97.8522 22.7321 98.6525 22.6138 99.4175 22.366C100.048 22.1138 100.634 21.7598 101.152 21.318C101.587 20.8687 101.925 20.3326 102.143 19.744C102.375 19.11 102.488 18.4378 102.476 17.762C102.484 17.1041 102.366 16.4508 102.129 15.838C101.865 15.2278 101.49 14.6724 101.025 14.2ZM61.2338 21.376H66.4329C66.3248 21.837 66.1289 22.2724 65.8561 22.658C65.5849 23.0271 65.249 23.343 64.865 23.59C64.5142 23.8941 64.0994 24.1137 63.652 24.232C63.1893 24.3987 62.7001 24.478 62.209 24.466C61.5913 24.4774 60.9798 24.3403 60.4251 24.066C59.8747 23.8239 59.3821 23.4659 58.9801 23.016C58.5681 22.5721 58.236 22.0591 57.9989 21.5C57.7514 20.9095 57.6169 20.277 57.6025 19.636C57.6229 18.9951 57.7572 18.3631 57.9989 17.77C58.236 17.2109 58.5681 16.6979 58.9801 16.254C59.3817 15.8026 59.8744 15.4433 60.4251 15.2C60.9798 14.9257 61.5913 14.7886 62.209 14.8C62.9892 14.7997 63.7543 15.0178 64.419 15.43C65.0329 15.8268 65.563 16.342 65.979 16.946L68.2901 15.546C67.65 14.551 66.7765 13.7308 65.7471 13.158C64.6814 12.5236 63.462 12.2003 62.2248 12.224C61.2513 12.2408 60.2888 12.4359 59.3844 12.8C58.5383 13.2015 57.7588 13.7324 57.0733 14.374C56.4234 15.0795 55.8966 15.891 55.5153 16.774C55.1189 17.6722 54.9214 18.6469 54.9365 19.63C54.9216 20.6125 55.1191 21.5864 55.5153 22.484C55.8979 23.3465 56.4249 24.1361 57.0733 24.818C57.7281 25.4971 58.5149 26.0323 59.3844 26.39C61.1338 27.126 63.0941 27.1681 64.873 26.508C65.6818 26.2312 66.4282 25.7955 67.0692 25.226C67.7103 24.6724 68.2399 23.9995 68.6291 23.244C69.0314 22.4891 69.2674 21.6554 69.3209 20.8V20.334C69.3209 20.102 69.3803 19.934 69.3803 19.694V18.928H61.2338V21.376ZM47.2637 12.748L54.4846 26.972H51.5392L50.4985 24.698H46.455L47.6681 22.366H49.1705L47.1487 18.054L42.6989 26.972H39.8109L47.0318 12.748H47.2637ZM77.2454 12.748L84.4683 26.972H81.5209L80.4822 24.698H76.4367L77.6498 22.366H79.1522L77.1305 18.054L72.6826 26.972H69.7946L77.0155 12.748H77.2454ZM87.384 24.094C87.1017 24.0936 86.8256 24.1777 86.5906 24.3357C86.3557 24.4937 86.1724 24.7185 86.0641 24.9815C85.9558 25.2446 85.9272 25.5342 85.9821 25.8137C86.0369 26.0932 86.1727 26.3499 86.3722 26.5515C86.5717 26.7531 86.826 26.8905 87.1029 26.9462C87.3798 27.0019 87.6668 26.9735 87.9277 26.8646C88.1886 26.7556 88.4116 26.5711 88.5685 26.3342C88.7254 26.0974 88.8092 25.8189 88.8092 25.534C88.8094 25.345 88.7728 25.1578 88.7013 24.9831C88.6297 24.8084 88.5248 24.6496 88.3925 24.5159C88.2601 24.3821 88.1029 24.276 87.9299 24.2036C87.7568 24.1313 87.5713 24.094 87.384 24.094Z" fill="white"/>
<path d="M12.2674 27.1C9.67292 27.0979 7.1344 26.3387 4.9578 24.914C2.78121 23.4892 1.05944 21.4597 0 19.07L2.63623 17.882C3.44958 19.7241 4.76537 21.2948 6.43006 22.4108C8.09476 23.5269 10.0397 24.1422 12.0379 24.1849C14.036 24.2277 16.0051 23.6961 17.7152 22.6523C19.4252 21.6085 20.8058 20.0955 21.6959 18.2898C22.5859 16.4842 22.9486 14.4603 22.7417 12.4545C22.5347 10.4487 21.7667 8.54365 20.5272 6.96165C19.2877 5.37966 17.6279 4.18598 15.7414 3.51993C13.8549 2.85387 11.8196 2.74291 9.873 3.2L9.21889 0.351998C11.0621 -0.0803913 12.975 -0.114833 14.8323 0.25093C16.6896 0.616693 18.4494 1.3744 19.9961 2.47439C21.5429 3.57437 22.8418 4.99179 23.8077 6.63373C24.7736 8.27567 25.3847 10.1051 25.6009 12.002C25.8171 13.8989 25.6335 15.8205 25.0622 17.6408C24.4909 19.4611 23.5448 21.139 22.2859 22.5646C21.0269 23.9901 19.4836 25.1311 17.7571 25.9127C16.0305 26.6943 14.1598 27.0989 12.2674 27.1Z" fill="#065FD4"/>
<path d="M13.0208 9.31799L2.75928 30H5.78599L14.5331 12.368L13.0208 9.31799ZM7.92273 30H10.9514L17.1159 17.574L15.6035 14.522L7.92273 30Z" fill="#065FD4"/>
<path d="M133.421 16.772C133.083 15.8658 132.55 15.0462 131.861 14.372C131.187 13.718 130.406 13.1862 129.552 12.8C128.661 12.4011 127.694 12.2025 126.72 12.218C125.743 12.1958 124.774 12.3947 123.883 12.8C123.021 13.1724 122.237 13.7066 121.572 14.374C120.879 15.0588 120.329 15.8762 119.953 16.7784C119.577 17.6806 119.384 18.6494 119.384 19.628C119.396 20.6075 119.592 21.5758 119.961 22.482C120.344 23.3591 120.893 24.152 121.578 24.816C121.8 25.0553 122.041 25.2766 122.298 25.478L123.511 23.034C123.511 23.034 123.493 23.018 123.485 23.008C123.054 22.5458 122.703 22.0137 122.446 21.434C122.215 20.8627 122.096 20.2512 122.097 19.634C122.095 18.9953 122.214 18.362 122.446 17.768C122.734 17.186 123.023 16.66 123.485 16.252C123.875 15.7883 124.371 15.4273 124.93 15.2C125.489 14.931 126.101 14.7914 126.721 14.7914C127.34 14.7914 127.952 14.931 128.511 15.2C129.07 15.4272 129.566 15.7875 129.956 16.25C130.403 16.6679 130.742 17.1878 130.948 17.766C131.222 18.3483 131.358 18.9873 131.344 19.632C131.356 20.2554 131.221 20.8727 130.948 21.432C130.73 22.0208 130.392 22.557 129.956 23.006C129.566 23.4685 129.07 23.8288 128.511 24.056C127.957 24.3312 127.345 24.4684 126.728 24.456C126.442 24.4565 126.157 24.429 125.877 24.374L124.728 26.688C125.378 26.8769 126.051 26.9699 126.728 26.964C127.703 26.9789 128.669 26.7796 129.56 26.38C130.437 26.0371 131.226 25.4999 131.869 24.808C132.556 24.1575 133.089 23.3599 133.429 22.474C133.819 21.5776 134.011 20.6066 133.992 19.628C134.016 18.6449 133.82 17.669 133.421 16.772Z" fill="white"/>
</g>
<defs>
<clipPath id="clip0_504_184">
<rect width="134" height="30" fill="white"/>
</clipPath>
</defs>
</svg>
