<svg width="310" height="240" viewBox="0 0 310 240" fill="none" xmlns="http://www.w3.org/2000/svg">
<g clip-path="url(#clip0_504_195)">
<path d="M151.4 157.72C136.17 157.698 121.272 153.275 108.498 144.982C95.7237 136.69 85.6189 124.882 79.3999 110.98L94.8799 104.07C99.6672 114.777 107.4 123.902 117.175 130.381C126.951 136.861 138.367 140.428 150.093 140.666C161.819 140.905 173.371 137.805 183.402 131.729C193.433 125.652 201.53 116.849 206.749 106.346C211.968 95.8434 214.094 84.0732 212.879 72.4082C211.663 60.7432 207.157 49.6641 199.884 40.4627C192.612 31.2612 182.874 24.3167 171.806 20.4387C160.737 16.5607 148.795 15.9092 137.37 18.56L133.49 2C145.058 -0.68226 157.083 -0.719922 168.668 1.88982C180.253 4.49956 191.1 9.68944 200.401 17.0729C209.702 24.4564 217.217 33.8432 222.387 44.5341C227.557 55.2251 230.248 66.9447 230.26 78.82C230.233 99.7305 221.918 119.778 207.136 134.567C192.353 149.357 172.31 157.683 151.4 157.72Z" fill="#065FD4"/>
<path d="M155.81 54.23L95.5601 174.59H113.33L164.7 71.98L155.81 54.23ZM125.89 174.59H143.66L179.87 102.28L170.98 84.52L125.89 174.59Z" fill="#065FD4"/>
<path d="M33.3 202.11L43.3 218.47L46.92 211.27C44.92 208.09 43.45 205.27 41.49 202.11H33.3ZM58.5 202.11C54.11 209.53 51.62 216.35 47.38 223.77V239.07H54.38V225L66.86 202.13L58.5 202.11ZM262.85 222.1C264.214 219.925 264.91 217.397 264.85 214.83C264.865 213.072 264.557 211.326 263.94 209.68C263.312 208.183 262.44 206.801 261.36 205.59C260.203 204.447 258.811 203.57 257.28 203.02C255.639 202.385 253.889 202.076 252.13 202.11H235.28V239.11H242.4V208.32H252.1C253.15 208.3 254.186 208.562 255.1 209.08C255.765 209.512 256.334 210.077 256.77 210.74C257.159 211.394 257.417 212.118 257.53 212.87C257.695 213.525 257.795 214.195 257.83 214.87C257.881 215.818 257.674 216.761 257.23 217.6C256.918 218.355 256.452 219.037 255.86 219.6C255.371 220.125 254.738 220.494 254.04 220.66C253.415 220.957 252.732 221.11 252.04 221.11H245C247.88 225.21 250.75 229.29 253.63 233.23C254.99 235.23 256.51 237.17 258.02 239.14H266.35C263.35 234.9 260.29 230.81 257.27 226.72C259.546 225.766 261.488 224.158 262.85 222.1ZM223.16 205.9C220.693 203.485 217.382 202.126 213.93 202.11H197.42V239.11H204.53V208.32H213.17C214.167 208.269 215.16 208.479 216.05 208.93C216.836 209.311 217.553 209.822 218.17 210.44C218.729 211.128 219.187 211.892 219.53 212.71C219.823 213.487 219.975 214.31 219.98 215.14C219.99 215.968 219.837 216.791 219.53 217.56C219.365 218.346 219 219.076 218.47 219.68C217.968 220.3 217.35 220.816 216.65 221.2C215.78 221.52 214.857 221.672 213.93 221.65H210.59V228H212.71C214.816 228.043 216.915 227.735 218.92 227.09C220.575 226.439 222.113 225.52 223.47 224.37C224.603 223.202 225.479 221.808 226.04 220.28C226.662 218.635 226.971 216.888 226.95 215.13C226.972 213.42 226.663 211.722 226.04 210.13C225.352 208.553 224.375 207.118 223.16 205.9ZM118.84 224.53H132.47C132.183 225.728 131.666 226.858 130.95 227.86C130.248 228.817 129.377 229.637 128.38 230.28C127.465 231.088 126.377 231.677 125.2 232C123.984 232.432 122.7 232.639 121.41 232.61C119.781 232.635 118.17 232.271 116.71 231.55C115.27 230.919 113.982 229.988 112.93 228.82C111.848 227.666 110.975 226.333 110.35 224.88C109.698 223.347 109.338 221.705 109.29 220.04C109.353 218.373 109.712 216.731 110.35 215.19C110.975 213.737 111.848 212.404 112.93 211.25C113.982 210.082 115.27 209.151 116.71 208.52C118.169 207.794 119.781 207.431 121.41 207.46C123.447 207.477 125.44 208.055 127.17 209.13C128.776 210.162 130.163 211.501 131.25 213.07L137.31 209.43C135.634 206.844 133.347 204.711 130.65 203.22C127.851 201.578 124.654 200.741 121.41 200.8C118.865 200.848 116.351 201.359 113.99 202.31C111.772 203.355 109.729 204.734 107.93 206.4C106.226 208.224 104.843 210.324 103.84 212.61C102.837 214.957 102.32 217.483 102.32 220.035C102.32 222.587 102.837 225.113 103.84 227.46C104.844 229.7 106.228 231.75 107.93 233.52C109.699 235.293 111.8 236.701 114.113 237.662C116.426 238.622 118.905 239.118 121.41 239.12C123.8 239.179 126.178 238.768 128.41 237.91C130.528 237.191 132.483 236.06 134.16 234.58C135.841 233.142 137.23 231.393 138.25 229.43C139.295 227.44 139.892 225.245 140 223V221.8C140 221.2 140.15 220.74 140.15 220.14V218.14H118.84V224.53ZM81.6 202.11L62.67 239.07H70.24L81.9 215.9L87.2 227.1H83.27L80.08 233.16H90.69L93.42 239.07H101.14L82.21 202.11H81.6ZM160.21 202.11L141.28 239.07H148.85L160.51 215.9L165.81 227.1H161.88L158.7 233.16H169.3L172.03 239.07H179.75L160.82 202.11H160.21ZM187.4 231.59C186.66 231.59 185.937 231.809 185.322 232.22C184.707 232.631 184.228 233.215 183.945 233.899C183.662 234.582 183.588 235.334 183.732 236.06C183.876 236.785 184.232 237.452 184.755 237.975C185.278 238.498 185.945 238.854 186.67 238.998C187.396 239.142 188.148 239.068 188.831 238.785C189.515 238.502 190.099 238.023 190.51 237.408C190.921 236.793 191.14 236.07 191.14 235.33C191.14 234.338 190.746 233.387 190.045 232.685C189.343 231.984 188.392 231.59 187.4 231.59ZM308.1 212.56C307.208 210.215 305.812 208.095 304.01 206.35C302.243 204.649 300.197 203.266 297.96 202.26C295.622 201.224 293.087 200.709 290.53 200.75C287.975 200.694 285.44 201.21 283.11 202.26C279.616 203.73 276.633 206.196 274.533 209.351C272.432 212.506 271.308 216.21 271.3 220C271.333 222.546 271.845 225.064 272.81 227.42C273.813 229.698 275.253 231.757 277.05 233.48C277.636 234.1 278.268 234.675 278.94 235.2L282.12 228.85L282.05 228.78C280.919 227.58 279.999 226.197 279.33 224.69C278.718 223.202 278.406 221.609 278.41 220C278.404 218.339 278.716 216.693 279.33 215.15C279.964 213.668 280.889 212.328 282.05 211.21C283.074 210.007 284.374 209.07 285.84 208.48C287.307 207.782 288.911 207.42 290.535 207.42C292.159 207.42 293.763 207.782 295.23 208.48C298.105 209.836 300.373 212.214 301.59 215.15C302.318 216.661 302.681 218.323 302.65 220C302.679 221.626 302.316 223.235 301.59 224.69C301.028 226.218 300.152 227.611 299.02 228.78C297.994 229.981 296.694 230.917 295.23 231.51C293.77 232.231 292.159 232.595 290.53 232.57C289.781 232.569 289.035 232.495 288.3 232.35L285.3 238.35C287.003 238.841 288.768 239.083 290.54 239.07C293.097 239.111 295.632 238.596 297.97 237.56C302.534 235.613 306.168 231.976 308.11 227.41C309.149 225.076 309.668 222.544 309.63 219.99C309.681 217.43 309.158 214.892 308.1 212.56ZM27.57 206.65C23.9568 203.564 19.3186 201.945 14.57 202.11H0V239.11H14.54C16.9651 239.117 19.3735 238.708 21.66 237.9C23.8524 237.163 25.8657 235.974 27.57 234.41C29.3656 232.781 30.7646 230.763 31.66 228.51C32.5874 225.974 33.0416 223.29 33 220.59C33.0437 217.901 32.5823 215.228 31.64 212.71C30.7886 210.393 29.3927 208.315 27.57 206.65ZM24.84 226.8C24.3301 228.267 23.3759 229.54 22.11 230.44C21.0683 231.334 19.8211 231.956 18.48 232.25C17.189 232.556 15.8667 232.71 14.54 232.71H7V208.47H14.57C15.8962 208.478 17.2175 208.633 18.51 208.93C19.8193 209.234 21.0539 209.798 22.14 210.59C23.4108 211.55 24.3623 212.871 24.87 214.38C26.2834 218.399 26.2834 222.781 24.87 226.8H24.84Z" fill="white"/>
</g>
<defs>
<clipPath id="clip0_504_195">
<rect width="309.62" height="239.07" fill="white"/>
</clipPath>
</defs>
</svg>
